<?xml version="1.0" encoding="UTF-8"?>
<svg version="1.1" xmlns="http://www.w3.org/2000/svg" width="250" height="250">
<path d="M0 0 C82.5 0 165 0 250 0 C250 82.5 250 165 250 250 C167.5 250 85 250 0 250 C0 167.5 0 85 0 0 Z " fill="#000000" transform="translate(0,0)"/>
<path d="M0 0 C1.09453491 -0.00637985 2.18906982 -0.0127597 3.31677246 -0.01933289 C4.50323364 -0.02044571 5.68969482 -0.02155853 6.91210938 -0.02270508 C8.1253186 -0.02603348 9.33852783 -0.02936188 10.58850098 -0.03279114 C13.15746684 -0.03786108 15.7264393 -0.04019944 18.29541016 -0.04003906 C22.23936726 -0.04222718 26.18304551 -0.06038698 30.12695312 -0.0793457 C32.61783758 -0.08227919 35.10872337 -0.08426429 37.59960938 -0.08520508 C38.78607056 -0.09239059 39.97253174 -0.09957611 41.19494629 -0.10697937 C42.83674866 -0.10236443 42.83674866 -0.10236443 44.51171875 -0.09765625 C45.47831421 -0.09908127 46.44490967 -0.10050629 47.4407959 -0.10197449 C49.75585938 0.14526367 49.75585938 0.14526367 51.75585938 2.14526367 C51.20030382 6.70081923 51.20030382 6.70081923 49.75585938 8.14526367 C47.42288504 8.18619305 45.08880713 8.1876809 42.75585938 8.14526367 C42.39601465 24.36926762 42.4339061 37.50631906 51.54931641 51.24487305 C53.55804113 54.40875675 55.13364874 57.77185426 56.75585938 61.14526367 C59.92318831 67.56442617 63.23489314 73.90024197 66.61132812 80.21166992 C76.60039876 98.9091611 76.60039876 98.9091611 74.75585938 110.14526367 C71.91854443 114.84992776 68.29665401 118.11806725 63.75585938 121.14526367 C59.03590621 122.04137301 54.45849508 122.27534136 49.66235352 122.29052734 C48.99143173 122.29388596 48.32050995 122.29724457 47.6292572 122.30070496 C45.43315734 122.31012718 43.23713439 122.31215345 41.04101562 122.31323242 C39.50076772 122.31645042 37.96052011 122.31981489 36.42027283 122.32331848 C33.20017793 122.32928745 29.9801098 122.33116062 26.76000977 122.33056641 C22.6502104 122.33046476 18.5405837 122.34412939 14.43082523 122.36133862 C11.25222497 122.37249842 8.07366598 122.37448441 4.89504814 122.37395668 C3.38051189 122.37513032 1.86597436 122.37951718 0.3514576 122.38728905 C-19.72238593 122.48068252 -19.72238593 122.48068252 -26.24414062 116.14526367 C-29.24414062 112.73147057 -29.24414062 112.73147057 -29.24414062 109.14526367 C-29.90414062 109.14526367 -30.56414062 109.14526367 -31.24414062 109.14526367 C-32.66274424 98.74217052 -29.29626268 91.9534366 -24.37304688 83.16674805 C-23.2916801 81.23039058 -22.24581285 79.2796909 -21.21289062 77.31713867 C-19.24593724 73.58085207 -17.24765616 69.86204309 -15.24414062 66.14526367 C-13.88728944 63.62586292 -12.53284079 61.10519994 -11.18164062 58.58276367 C-10.85413818 57.97150635 -10.52663574 57.36024902 -10.18920898 56.73046875 C-7.20817705 51.13594962 -4.38580478 45.46792371 -1.59179688 39.77807617 C-0.24414062 37.14526367 -0.24414062 37.14526367 0.75585938 36.14526367 C0.91428587 34.07441647 1.0071036 31.99848338 1.07226562 29.92260742 C1.13510742 28.03251953 1.13510742 28.03251953 1.19921875 26.10424805 C1.23903534 24.76375631 1.27874751 23.42326147 1.31835938 22.08276367 C1.3615398 20.73834845 1.40515393 19.39394708 1.44921875 18.04956055 C1.55571295 14.74824027 1.65772398 11.44684131 1.75585938 8.14526367 C0.08523437 8.20713867 0.08523437 8.20713867 -1.61914062 8.27026367 C-5.24414062 8.14526367 -5.24414062 8.14526367 -7.24414062 6.14526367 C-7.36914062 3.52026367 -7.36914062 3.52026367 -7.24414062 1.14526367 C-4.6861597 -0.13372679 -2.86387206 0.01129377 0 0 Z " fill="#51E7F6" transform="translate(100.244140625,104.854736328125)"/>
<path d="M0 0 C8.25 0 16.5 0 25 0 C25.00386719 3.03960937 25.00386719 3.03960937 25.0078125 6.140625 C25.03567208 8.14651447 25.06375546 10.15240666 25.09765625 12.15820312 C25.11560331 13.53115312 25.12342418 14.90428044 25.12011719 16.27734375 C25.10528876 26.4199851 26.80277195 33.33036163 32 42 C32.98208227 43.80429817 33.95876515 45.61154705 34.9296875 47.421875 C35.91022975 49.19859525 36.89201985 50.97462737 37.875 52.75 C41.55501324 59.45218544 45.18976025 66.1685758 48.625 73 C48.9432373 73.62745117 49.26147461 74.25490234 49.58935547 74.90136719 C51.38787031 78.5221527 52.81054968 82.13723065 54 86 C52.2508503 86.33776684 50.50063855 86.67003671 48.75 87 C47.77546875 87.185625 46.8009375 87.37125 45.796875 87.5625 C43 88 43 88 39 88 C39 87.34 39 86.68 39 86 C38.01 86 37.02 86 36 86 C36 86.66 36 87.32 36 88 C36.66 88 37.32 88 38 88 C38 88.66 38 89.32 38 90 C34.38026598 91.31626692 31.90432869 92 28 92 C27.67 91.34 27.34 90.68 27 90 C26.67 90.66 26.34 91.32 26 92 C15.1408668 92.32354959 8.06974122 88.26762371 -1 83 C-8.76373722 78.57429472 -16.19980576 78.23188918 -25 78 C-23.33688675 71.96027292 -20.9775772 66.92502043 -17.59765625 61.65234375 C-15.9422545 58.904134 -14.52439577 56.1041752 -13.10864258 53.2277832 C-11.08234896 49.15600843 -8.93823828 45.1454859 -6.8125 41.125 C-5.9230125 39.44019105 -5.03368174 37.75529933 -4.14453125 36.0703125 C-3.75628174 35.33570801 -3.36803223 34.60110352 -2.96801758 33.84423828 C-0.99695257 30.08902388 -0.81012797 27.54435092 -0.68359375 23.2421875 C-0.66281265 22.57913605 -0.64203156 21.91608459 -0.62062073 21.23294067 C-0.55520769 19.11373306 -0.49627895 16.994401 -0.4375 14.875 C-0.39430691 13.43878919 -0.35069236 12.00259098 -0.30664062 10.56640625 C-0.19874091 7.04439656 -0.09960757 3.52229312 0 0 Z " fill="#020507" transform="translate(110,113)"/>
<path d="M0 0 C1.28390625 -0.02578125 2.5678125 -0.0515625 3.890625 -0.078125 C10.05810117 0.44623532 14.83458708 3.23222076 20.09155273 6.2578125 C27.18881625 10.31285527 33.47881911 12.63389714 41.75 13.25 C42.08 12.26 42.41 11.27 42.75 10.25 C43.245 11.735 43.245 11.735 43.75 13.25 C47.05 12.59 50.35 11.93 53.75 11.25 C53.75 10.59 53.75 9.93 53.75 9.25 C53.09 9.25 52.43 9.25 51.75 9.25 C51.75 8.59 51.75 7.93 51.75 7.25 C52.74 7.25 53.73 7.25 54.75 7.25 C54.75 7.91 54.75 8.57 54.75 9.25 C56.32201172 9.08951172 56.32201172 9.08951172 57.92578125 8.92578125 C59.30461314 8.80384374 60.68352396 8.68279635 62.0625 8.5625 C63.09793945 8.45325195 63.09793945 8.45325195 64.15429688 8.34179688 C69.22229775 7.92558424 69.22229775 7.92558424 71.70703125 9.453125 C73.67558597 12.8446425 73.26949493 16.4631554 72.75 20.25 C71.375 22.8125 71.375 22.8125 69.75 24.25 C69.09 24.25 68.43 24.25 67.75 24.25 C67.564375 25.2090625 67.564375 25.2090625 67.375 26.1875 C67.16875 26.868125 66.9625 27.54875 66.75 28.25 C63.80916442 29.72041779 61.18431211 29.39358223 57.90112305 29.41113281 C57.19685181 29.41609772 56.49258057 29.42106262 55.76696777 29.42617798 C53.43187489 29.44080911 51.09684998 29.44760368 48.76171875 29.453125 C47.1398773 29.45887634 45.51803587 29.46463408 43.89619446 29.47039795 C40.4923979 29.4809111 37.08862497 29.48675148 33.68481445 29.49023438 C29.3267682 29.49571517 24.969035 29.51973282 20.61108685 29.54820633 C17.2593139 29.5668475 13.90761607 29.57203913 10.55579567 29.57357025 C8.94945377 29.57659475 7.34311314 29.58461646 5.73682213 29.59775543 C3.48666095 29.61484483 1.23726061 29.61292884 -1.01293945 29.60644531 C-2.29264114 29.61009094 -3.57234283 29.61373657 -4.89082336 29.61749268 C-10.29770175 29.02598219 -13.78208701 26.33718317 -17.25 22.25 C-18.84258828 18.53396069 -18.3161311 14.21786602 -18.25 10.25 C-17.59 10.25 -16.93 10.25 -16.25 10.25 C-16.0025 9.5075 -15.755 8.765 -15.5 8 C-14.13708637 5.00159001 -12.74904822 3.37040455 -10.25 1.25 C-6.6937153 0.06457177 -3.74943946 0.04481402 0 0 Z " fill="#4EDFFA" transform="translate(94.25,191.75)"/>
<path d="M0 0 C0.12375 0.639375 0.2475 1.27875 0.375 1.9375 C0.58125 2.618125 0.7875 3.29875 1 4 C1.66 4.33 2.32 4.66 3 5 C3.0270043 6.45823212 3.04639787 7.91660675 3.0625 9.375 C3.07410156 10.18710938 3.08570312 10.99921875 3.09765625 11.8359375 C3 14 3 14 2 16 C6.95 16 11.9 16 17 16 C17 16.33 17 16.66 17 17 C16.11957031 17.03738281 15.23914063 17.07476562 14.33203125 17.11328125 C12.58986328 17.21189453 12.58986328 17.21189453 10.8125 17.3125 C9.66394531 17.37050781 8.51539062 17.42851562 7.33203125 17.48828125 C3.78813991 18.03253654 1.85166474 18.86377059 -1 21 C-2.36011609 22.98188345 -3.69791204 24.97951869 -5 27 C-5.66 27 -6.32 27 -7 27 C-6.45641501 35.25010641 -6.45641501 35.25010641 -2.5625 42.1875 C1.64913295 45.16645989 5.26346228 45.13936003 10.2253418 45.11352539 C11.3232756 45.11374443 11.3232756 45.11374443 12.44338989 45.1139679 C14.86202969 45.1132714 17.28059241 45.10549128 19.69921875 45.09765625 C21.37644916 45.09579114 23.05368011 45.09436767 24.73091125 45.09336853 C29.14500432 45.0895507 33.55906447 45.07972666 37.97314453 45.06866455 C42.47753453 45.05843467 46.98192985 45.05386753 51.48632812 45.04882812 C60.32423321 45.03810375 69.16211387 45.02103611 78 45 C78.12246094 44.37480469 78.24492187 43.74960938 78.37109375 43.10546875 C79 41 79 41 81.0625 39.3125 C83.6749648 36.19439685 83.40155778 33.97377846 83.3359375 30.0234375 C83.16452129 27.77668954 83.16452129 27.77668954 81 26 C78.33050591 25.75684344 78.33050591 25.75684344 75.375 25.875 C74.37210937 25.89304688 73.36921875 25.91109375 72.3359375 25.9296875 C71.56507813 25.95289063 70.79421875 25.97609375 70 26 C73 24 73 24 81 24 C78.36 18.72 75.72 13.44 73 8 C73.99 7.01 74.98 6.02 76 5 C76.66 5 77.32 5 78 5 C78.33 3.68 78.66 2.36 79 1 C93.85616927 28.6930534 93.85616927 28.6930534 92 40 C89.16268505 44.70466408 85.54079463 47.97280358 81 51 C76.28004684 51.89610933 71.7026357 52.13007769 66.90649414 52.14526367 C66.23557236 52.14862228 65.56465057 52.1519809 64.87339783 52.15544128 C62.67729796 52.16486351 60.48127501 52.16688978 58.28515625 52.16796875 C56.74490834 52.17118675 55.20466074 52.17455122 53.66441345 52.17805481 C50.44431856 52.18402377 47.22425042 52.18589695 44.00415039 52.18530273 C39.89435102 52.18520109 35.78472432 52.19886572 31.67496586 52.21607494 C28.49636559 52.22723475 25.31780661 52.22922074 22.13918877 52.22869301 C20.62465252 52.22986664 19.11011498 52.23425351 17.59559822 52.24202538 C-2.4782453 52.33541885 -2.4782453 52.33541885 -9 46 C-12 42.5862069 -12 42.5862069 -12 39 C-12.66 39 -13.32 39 -14 39 C-15.52689438 27.80277453 -11.30022764 20.40729901 -6 11 C-4.83260521 8.83372556 -3.66583497 6.66711429 -2.5 4.5 C-1.66966833 2.99833634 -0.83764022 1.49759918 0 0 Z " fill="#5E7EEB" transform="translate(83,175)"/>
<path d="M0 0 C0.99 0 1.98 0 3 0 C3 0.66 3 1.32 3 2 C4.04800781 1.89300781 5.09601563 1.78601563 6.17578125 1.67578125 C7.55461314 1.55384374 8.93352396 1.43279635 10.3125 1.3125 C11.34793945 1.20325195 11.34793945 1.20325195 12.40429688 1.09179688 C17.47229775 0.67558424 17.47229775 0.67558424 19.95703125 2.203125 C21.92558597 5.5946425 21.51949493 9.2131554 21 13 C19.625 15.5625 19.625 15.5625 18 17 C17.34 17 16.68 17 16 17 C15.814375 17.9590625 15.814375 17.9590625 15.625 18.9375 C15.41875 19.618125 15.2125 20.29875 15 21 C12.03592441 22.48203779 9.37920835 22.11920826 6.07177734 22.11352539 C5.00332329 22.11374443 5.00332329 22.11374443 3.9132843 22.1139679 C1.55413794 22.11327011 -0.80492989 22.10548397 -3.1640625 22.09765625 C-4.79788164 22.0957916 -6.43170134 22.09436792 -8.06552124 22.09336853 C-12.3694818 22.08954709 -16.67340871 22.07971998 -20.97735596 22.06866455 C-25.36771184 22.05844242 -29.75807315 22.05386919 -34.1484375 22.04882812 C-42.76564046 22.03809739 -51.38281604 22.02102543 -60 22 C-60 21.67 -60 21.34 -60 21 C-37.23 20.505 -37.23 20.505 -14 20 C-13.07461831 16.29847322 -12.91825838 15.36541838 -14 12 C-13.360625 12.185625 -12.72125 12.37125 -12.0625 12.5625 C-11.0415625 12.7790625 -11.0415625 12.7790625 -10 13 C-9.67 12.67 -9.34 12.34 -9 12 C-9.66 11.67 -10.32 11.34 -11 11 C-10.67 10.01 -10.34 9.02 -10 8 C-12.475 7.505 -12.475 7.505 -15 7 C-15 6.67 -15 6.34 -15 6 C-13.35 6 -11.7 6 -10 6 C-9.67 5.01 -9.34 4.02 -9 3 C-8.505 4.485 -8.505 4.485 -8 6 C-4.7 5.34 -1.4 4.68 2 4 C2 3.34 2 2.68 2 2 C1.34 2 0.68 2 0 2 C0 1.34 0 0.68 0 0 Z " fill="#4BCEF3" transform="translate(146,199)"/>
<path d="M0 0 C2.85252186 0.22985197 5.66247179 0.52202799 8.5 0.875 C9.29792969 0.96652344 10.09585938 1.05804687 10.91796875 1.15234375 C16.86979669 1.86979669 16.86979669 1.86979669 18 3 C18.02882228 4.39713179 17.98683789 5.79587348 17.9140625 7.19140625 C17.87023437 8.05443359 17.82640625 8.91746094 17.78125 9.80664062 C17.7296875 10.71607422 17.678125 11.62550781 17.625 12.5625 C17.58117187 13.44486328 17.53734375 14.32722656 17.4921875 15.23632812 C16.69004318 30.30995682 16.69004318 30.30995682 15 32 C12.13311752 31.90903444 9.29699485 31.76232012 6.4375 31.5625 C5.63119141 31.51029297 4.82488281 31.45808594 3.99414062 31.40429688 C1.99578262 31.27422624 -0.00215386 31.13770944 -2 31 C-3.71958379 26.66588174 -4.15935771 23.92705612 -3.1875 19.375 C-2.14005971 14.01022571 -1.59259168 8.75282018 -1.24609375 3.30078125 C-1 1 -1 1 0 0 Z " fill="#5D74E8" transform="translate(128,28)"/>
<path d="M0 0 C2.36328125 0.171875 2.36328125 0.171875 5.3125 0.75 C10.98639603 1.82028752 16.66055873 2.66904386 22.3828125 3.4375 C25 4 25 4 27 6 C27.01171875 9.1875 27.01171875 9.1875 26.6875 13 C26.58824219 14.258125 26.48898438 15.51625 26.38671875 16.8125 C26 20 26 20 25 22 C18.45490242 22.31167131 12.42462611 21.70997252 6 20.5625 C5.245979 20.42803467 4.49195801 20.29356934 3.71508789 20.1550293 C-1.71288957 19.14355522 -1.71288957 19.14355522 -4 18 C-3.71880143 15.37348569 -3.42556162 12.74930665 -3.125 10.125 C-3.04636719 9.37863281 -2.96773437 8.63226563 -2.88671875 7.86328125 C-2.2265625 2.2265625 -2.2265625 2.2265625 0 0 Z " fill="#4AD4DF" transform="translate(131,72)"/>
<path d="M0 0 C4.05640209 4.50711344 6.40122319 9.58862297 9 15 C9.74765357 16.48035407 10.49743494 17.95963673 11.25 19.4375 C14.42550951 25.90193007 15.17096346 31.86701834 14 39 C11.16268505 43.70466408 7.54079463 46.97280358 3 50 C-1.76698063 50.91017865 -6.37603426 51.12228565 -11.22045898 51.11352539 C-11.90423111 51.11367142 -12.58800323 51.11381744 -13.29249573 51.1139679 C-15.52706197 51.11327755 -17.76154228 51.10552677 -19.99609375 51.09765625 C-21.55550593 51.09578895 -23.11491869 51.09436652 -24.67433167 51.09336853 C-28.75956876 51.08956796 -32.84476975 51.07975891 -36.92999268 51.06866455 C-41.10631828 51.05839731 -45.28264976 51.05385957 -49.45898438 51.04882812 C-57.6393394 51.03813423 -65.8196652 51.02108765 -74 51 C-74 50.67 -74 50.34 -74 50 C-38.855 49.505 -38.855 49.505 -3 49 C-3 48.01 -3 47.02 -3 46 C-1.02 45.67 0.96 45.34 3 45 C3.4640625 43.2984375 3.4640625 43.2984375 3.9375 41.5625 C5 38 5 38 6 37 C6.23820921 34.96729438 6.23820921 34.96729438 6.25 32.625 C6.27578125 31.83351562 6.3015625 31.04203125 6.328125 30.2265625 C6.15345829 27.96414017 6.15345829 27.96414017 4.83984375 26.22265625 C2.2621589 24.50967247 0.37542552 24.70439675 -2.6875 24.8125 C-3.68136719 24.83957031 -4.67523438 24.86664063 -5.69921875 24.89453125 C-6.45847656 24.92933594 -7.21773438 24.96414062 -8 25 C-5 23 -5 23 3 23 C0.36 17.72 -2.28 12.44 -5 7 C-4.01 6.01 -3.02 5.02 -2 4 C-1.34 4 -0.68 4 0 4 C0 2.68 0 1.36 0 0 Z " fill="#5874D9" transform="translate(161,176)"/>
<path d="M0 0 C1.51171875 2.14453125 1.51171875 2.14453125 2.6875 4.8125 C3.08324219 5.68519531 3.47898437 6.55789062 3.88671875 7.45703125 C4.25410156 8.29621094 4.62148437 9.13539062 5 10 C5.37511719 10.71542969 5.75023438 11.43085937 6.13671875 12.16796875 C7 14 7 14 7.125 16.5 C5.59083341 19.90925909 3.6808009 20.65913438 0.34375 22.15234375 C-3.36823097 23.49484353 -7.12661075 24.28629217 -11 25 C-12.34326531 22.42141033 -13.67474665 19.83782579 -15 17.25 C-15.3815625 16.52039063 -15.763125 15.79078125 -16.15625 15.0390625 C-16.5171875 14.33007812 -16.878125 13.62109375 -17.25 12.890625 C-17.58515625 12.24125977 -17.9203125 11.59189453 -18.265625 10.92285156 C-19 9 -19 9 -19 5 C-17.23002526 4.18563132 -15.45898848 3.3735706 -13.6875 2.5625 C-12.70136719 2.11003906 -11.71523437 1.65757813 -10.69921875 1.19140625 C-6.63937881 -0.60056362 -4.26807171 -1.48542338 0 0 Z " fill="#5798F1" transform="translate(107,49)"/>
<path d="M0 0 C0.33 0 0.66 0 1 0 C1.52507251 6.30087009 1.23617707 11.96793512 -3 17 C-6.25 18 -6.25 18 -9 18 C-9 18.99 -9 19.98 -9 21 C-13.10666949 21.77113453 -16.9934711 22.1300916 -21.16967773 22.14526367 C-22.36789658 22.15164352 -23.56611542 22.15802338 -24.80064392 22.16459656 C-26.72270409 22.16626579 -26.72270409 22.16626579 -28.68359375 22.16796875 C-30.02588435 22.17118665 -31.3681746 22.17455112 -32.71046448 22.17805481 C-35.5170269 22.18402442 -38.32355863 22.18589689 -41.13012695 22.18530273 C-44.71207174 22.1852011 -48.29381836 22.19886411 -51.87571621 22.21607494 C-54.64594921 22.2272353 -57.41613485 22.22922073 -60.18638802 22.22869301 C-62.14441015 22.23043391 -64.10241752 22.2412459 -66.06040955 22.25224304 C-72.08236535 22.23682122 -77.33200642 22.1188712 -83 20 C-82.34 19.67 -81.68 19.34 -81 19 C-81 18.34 -81 17.68 -81 17 C-56.25 16.67 -31.5 16.34 -6 16 C-5.67 14.68 -5.34 13.36 -5 12 C-4.34 11.4225 -3.68 10.845 -3 10.25 C-0.09127967 6.97768963 -0.28772343 4.31585138 0 0 Z " fill="#56A0FA" transform="translate(167,204)"/>
<path d="M0 0 C4.50343911 0.5112012 6.87525426 2.17521358 10.3125 5.0625 C11.19550781 5.79597656 12.07851562 6.52945313 12.98828125 7.28515625 C13.98408203 8.13400391 13.98408203 8.13400391 15 9 C14.39889717 13.00735217 12.33397972 15.55469371 9.9375 18.75 C9.20402344 19.73484375 8.47054687 20.7196875 7.71484375 21.734375 C7.14894531 22.48203125 6.58304688 23.2296875 6 24 C2.10993227 22.61219205 -0.96558708 20.7847773 -4.3125 18.375 C-5.19550781 17.74335937 -6.07851562 17.11171875 -6.98828125 16.4609375 C-7.65214844 15.97882812 -8.31601563 15.49671875 -9 15 C-7.61219205 11.10993227 -5.7847773 8.03441292 -3.375 4.6875 C-2.74335938 3.80449219 -2.11171875 2.92148437 -1.4609375 2.01171875 C-0.97882813 1.34785156 -0.49671875 0.68398438 0 0 Z " fill="#509EE6" transform="translate(163,45)"/>
<path d="M0 0 C1.20628008 2.33214148 2.1654738 4.49642139 3 7 C3.24234375 7.598125 3.4846875 8.19625 3.734375 8.8125 C4.13820976 12.13819804 2.79259077 14.05634055 1.25 17 C0.79258423 17.88196045 0.79258423 17.88196045 0.32592773 18.78173828 C-4.29212144 27.60364163 -9.15566551 36.30099132 -14 45 C-14.66 45 -15.32 45 -16 45 C-15.979375 44.030625 -15.95875 43.06125 -15.9375 42.0625 C-15.64381501 39.12534105 -15.64381501 39.12534105 -17 38 C-17.70438073 32.29538569 -15.66323178 28.78643751 -12.9375 24 C-12.11177444 22.50082895 -11.28757919 21.00081409 -10.46484375 19.5 C-10.05089355 18.75105469 -9.63694336 18.00210938 -9.21044922 17.23046875 C-7.38370236 13.86436159 -5.68685658 10.43781101 -4 7 C-1.10714286 1.10714286 -1.10714286 1.10714286 0 0 Z " fill="#4ED9EC" transform="translate(101,141)"/>
<path d="M0 0 C1.87719727 0.29711914 1.87719727 0.29711914 4 1 C5.50039027 3.47877598 6.73668085 5.81940756 7.9375 8.4375 C8.63373601 9.90252372 9.33035023 11.36736777 10.02734375 12.83203125 C10.36233887 13.54697754 10.69733398 14.26192383 11.04248047 14.99853516 C12.28001609 17.58530646 13.64252695 20.09955869 15 22.625 C16.81266234 26.21395018 17.53783615 28.91244525 17 33 C15.35 33.66 13.7 34.32 12 35 C8.99141362 29.67145923 5.99235095 24.33767328 3 19 C2.36191406 17.86433594 1.72382813 16.72867188 1.06640625 15.55859375 C0.52886719 14.59050781 -0.00867188 13.62242187 -0.5625 12.625 C-1.03816406 11.77164063 -1.51382813 10.91828125 -2.00390625 10.0390625 C-3 8 -3 8 -3 6 C-1.68 6.33 -0.36 6.66 1 7 C1.66 5.35 2.32 3.7 3 2 C2.01 1.67 1.02 1.34 0 1 C0 0.67 0 0.34 0 0 Z " fill="#48DEEE" transform="translate(144,147)"/>
<path d="M0 0 C0.19266055 15.24159021 0.19266055 15.24159021 -1 22 C-1.33 22.33 -1.66 22.66 -2 23 C-4.86688248 22.90903444 -7.70300515 22.76232012 -10.5625 22.5625 C-11.36880859 22.51029297 -12.17511719 22.45808594 -13.00585938 22.40429688 C-15.00421738 22.27422624 -17.00215386 22.13770944 -19 22 C-20.89071506 17.41603616 -21.12138614 14.84437166 -19.625 10.125 C-19.32851562 9.15820312 -19.03203125 8.19140625 -18.7265625 7.1953125 C-18.48679687 6.47085938 -18.24703125 5.74640625 -18 5 C-16.66666667 5 -15.33333333 5 -14 5 C-14 8.96 -14 12.92 -14 17 C-11.36 17 -8.72 17 -6 17 C-6.04125 15.845 -6.0825 14.69 -6.125 13.5 C-6.11700082 9.01246059 -5.42128847 5.2638654 -4 1 C-1 0 -1 0 0 0 Z " fill="#5E87EB" transform="translate(145,37)"/>
<path d="M0 0 C3.21524305 1.40844718 5.32183868 3.10344786 7.75 5.625 C8.67039062 6.57246094 8.67039062 6.57246094 9.609375 7.5390625 C10.06828125 8.02117188 10.5271875 8.50328125 11 9 C10.67 9.99 10.34 10.98 10 12 C9.34 12 8.68 12 8 12 C7.566875 12.928125 7.566875 12.928125 7.125 13.875 C6 16 6 16 4 18 C1.6875 18 1.6875 18 -1 17 C-2.86640285 15.12293199 -4.3774927 13.10487433 -6 11 C-6.66 10.67 -7.32 10.34 -8 10 C-6.34908222 5.70761377 -3.26245434 3.1206085 0 0 Z " fill="#5F66EB" transform="translate(83,16)"/>
<path d="M0 0 C2.64 0 5.28 0 8 0 C8.10655578 6.44070471 7.96205088 12.62641289 7 19 C4.36 19 1.72 19 -1 19 C-0.67 12.73 -0.34 6.46 0 0 Z " fill="#080B18" transform="translate(132,35)"/>
<path d="M0 0 C0.69937202 1.4317616 1.38412718 2.87067032 2.0625 4.3125 C2.44535156 5.11300781 2.82820313 5.91351563 3.22265625 6.73828125 C4 9 4 9 3 12 C0.93359375 12.94921875 0.93359375 12.94921875 -1.5625 13.6875 C-2.38878906 13.93886719 -3.21507813 14.19023438 -4.06640625 14.44921875 C-4.70449219 14.63097656 -5.34257813 14.81273438 -6 15 C-8.63382667 12.50365329 -9.96659556 10.53079849 -11 7 C-11 4.875 -11 4.875 -10 3 C-6.32115375 0.71094011 -4.38448044 0 0 0 Z " fill="#4A80D5" transform="translate(91,80)"/>
<path d="M0 0 C6.99221779 0.37650403 13.58851224 2.28744748 20 5 C19.67 5.99 19.34 6.98 19 8 C13.72 8 8.44 8 3 8 C2.34 9.65 1.68 11.3 1 13 C-1.125 13.8125 -1.125 13.8125 -3 14 C-2.88617347 12.04098546 -2.75858875 10.0827662 -2.625 8.125 C-2.55539063 7.03445312 -2.48578125 5.94390625 -2.4140625 4.8203125 C-2 2 -2 2 0 0 Z " fill="#50E4F2" transform="translate(131,72)"/>
<path d="M0 0 C0.99 0 1.98 0 3 0 C3.33 0.66 3.66 1.32 4 2 C3.67 2.66 3.34 3.32 3 4 C3.66 4.33 4.32 4.66 5 5 C5.72827148 6.84667969 5.72827148 6.84667969 6 9 C4.77808788 11.55359413 3.53634417 13.85287162 2.0625 16.25 C1.67642578 16.8996875 1.29035156 17.549375 0.89257812 18.21875 C-0.06058418 19.81912129 -1.02885924 21.4104742 -2 23 C-2.66 23 -3.32 23 -4 23 C-3.979375 22.030625 -3.95875 21.06125 -3.9375 20.0625 C-3.64381501 17.12534105 -3.64381501 17.12534105 -5 16 C-5.95054802 9.82143788 -2.89146798 5.2252957 0 0 Z " fill="#55BFF5" transform="translate(89,163)"/>
<path d="M0 0 C0.12375 0.639375 0.2475 1.27875 0.375 1.9375 C0.684375 2.9584375 0.684375 2.9584375 1 4 C1.66 4.33 2.32 4.66 3 5 C3.0270043 6.45823212 3.04639787 7.91660675 3.0625 9.375 C3.07410156 10.18710938 3.08570312 10.99921875 3.09765625 11.8359375 C3 14 3 14 2 16 C6.95 16 11.9 16 17 16 C17 16.33 17 16.66 17 17 C16.11957031 17.03738281 15.23914063 17.07476562 14.33203125 17.11328125 C12.58986328 17.21189453 12.58986328 17.21189453 10.8125 17.3125 C9.66394531 17.37050781 8.51539062 17.42851562 7.33203125 17.48828125 C3.80179384 18.03043963 1.89906212 18.97215862 -1 21 C-1.99 21.66 -2.98 22.32 -4 23 C-3.67 21.02 -3.34 19.04 -3 17 C-3.99 16.67 -4.98 16.34 -6 16 C-5.690625 15.46375 -5.38125 14.9275 -5.0625 14.375 C-3.86730942 11.98627598 -3.86730942 11.98627598 -3.5625 9.125 C-2.93851492 5.65841624 -1.68402859 3.07518263 0 0 Z " fill="#5A94EC" transform="translate(83,175)"/>
<path d="M0 0 C0.66 1.32 1.32 2.64 2 4 C1.01 5.485 1.01 5.485 0 7 C0.66 7.33 1.32 7.66 2 8 C1.125 15.75 1.125 15.75 0 18 C-0.66 18 -1.32 18 -2 18 C-1.9071875 19.1446875 -1.9071875 19.1446875 -1.8125 20.3125 C-2 23 -2 23 -3.375 24.8125 C-5 26 -5 26 -7 26 C-8.20994413 15.51381756 -5.10629059 8.80574602 0 0 Z " fill="#617EF1" transform="translate(78,184)"/>
<path d="M0 0 C2.81869317 2.81869317 4.34052376 6.23149207 6.125 9.75 C6.49753906 10.45382813 6.87007812 11.15765625 7.25390625 11.8828125 C9.39393277 16.10015415 10.47252354 19.15282304 10 24 C8.35 24.66 6.7 25.32 5 26 C4.16121545 24.71186658 3.32913217 23.41936744 2.5 22.125 C2.0359375 21.40570313 1.571875 20.68640625 1.09375 19.9453125 C0 18 0 18 0 16 C0.66 16 1.32 16 2 16 C1.50130596 10.63108121 0.97772468 5.30764827 0 0 Z " fill="#4CCEF4" transform="translate(151,156)"/>
<path d="M0 0 C5.61 0.66 11.22 1.32 17 2 C16.67 4.31 16.34 6.62 16 9 C13.9163691 8.85848172 11.83310062 8.71162064 9.75 8.5625 C8.58984375 8.48128906 7.4296875 8.40007812 6.234375 8.31640625 C3.69022624 8.06752213 1.44046752 7.71885058 -1 7 C-0.67 4.69 -0.34 2.38 0 0 Z " fill="#030A0B" transform="translate(135,79)"/>
<path d="M0 0 C3.57757693 4.19440054 7 8.30488053 7 14 C6.34 14 5.68 14 5 14 C4.34 15.32 3.68 16.64 3 18 C0 17 0 17 -1.38671875 14.71484375 C-1.81597656 13.79832031 -2.24523437 12.88179687 -2.6875 11.9375 C-3.12449219 11.01839844 -3.56148437 10.09929687 -4.01171875 9.15234375 C-4.33785156 8.44207031 -4.66398438 7.73179687 -5 7 C-3.625 5.5 -3.625 5.5 -2 4 C-1.34 4 -0.68 4 0 4 C0 2.68 0 1.36 0 0 Z " fill="#599CEB" transform="translate(161,176)"/>
<path d="M0 0 C1.86007925 3.27728249 2 5.1659754 2 9 C-0.97 9.66 -3.94 10.32 -7 11 C-10 4.375 -10 4.375 -10 1 C-6.31204819 -0.79129088 -3.89667243 -1.57973207 0 0 Z " fill="#03060F" transform="translate(105,56)"/>
<path d="M0 0 C8.79393628 -0.42781312 16.51311539 0.70032804 25 3 C24.67 3.66 24.34 4.32 24 5 C20.97892098 5.0543251 17.95883472 5.09382927 14.9375 5.125 C14.08994141 5.14175781 13.24238281 5.15851563 12.36914062 5.17578125 C7.16581799 5.21596135 2.92530179 4.69745815 -2 3 C-1.34 2.67 -0.68 2.34 0 2 C0 1.34 0 0.68 0 0 Z " fill="#5F93F9" transform="translate(86,221)"/>
<path d="M0 0 C1.65 0.33 3.3 0.66 5 1 C5.33 1.99 5.66 2.98 6 4 C5 6 5 6 2.6875 7.1875 C-0.92603511 9.62453531 -2.034008 12.14083051 -4 16 C-5.65 15.67 -7.3 15.34 -9 15 C-7.61219205 11.10993227 -5.7847773 8.03441292 -3.375 4.6875 C-2.74335938 3.80449219 -2.11171875 2.92148437 -1.4609375 2.01171875 C-0.97882813 1.34785156 -0.49671875 0.68398438 0 0 Z " fill="#57ADEA" transform="translate(163,45)"/>
<path d="M0 0 C3.375 -0.125 3.375 -0.125 7 0 C9 2 9 2 9.046875 5.1875 C8.94890625 6.445625 8.8509375 7.70375 8.75 9 C8.66234375 10.258125 8.5746875 11.51625 8.484375 12.8125 C8 16 8 16 6 18 C6 15.36 6 12.72 6 10 C5.01 9.67 4.02 9.34 3 9 C3 7.68 3 6.36 3 5 C2.11248047 5.01740234 2.11248047 5.01740234 1.20703125 5.03515625 C-3.00231785 5.08322386 -6.8922333 5.06006883 -11 4 C-11 3.67 -11 3.34 -11 3 C-7.37 3 -3.74 3 0 3 C0 2.01 0 1.02 0 0 Z " fill="#4BD5E6" transform="translate(149,76)"/>
<path d="M0 0 C0.33 0 0.66 0 1 0 C1 3.3 1 6.6 1 10 C2.65 9.01 4.3 8.02 6 7 C7.12029814 12.48946087 6.79217969 15.83430559 5 21 C3 19.1875 3 19.1875 1 17 C1 16.01 1 15.02 1 14 C0.34 14 -0.32 14 -1 14 C-1.02694851 12.04174127 -1.04637218 10.08337774 -1.0625 8.125 C-1.07410156 7.03445312 -1.08570312 5.94390625 -1.09765625 4.8203125 C-1 2 -1 2 0 0 Z " fill="#5972DF" transform="translate(70,200)"/>
<path d="M0 0 C1.32 0 2.64 0 4 0 C5.5625 2.8125 5.5625 2.8125 7 6 C6.67 6.99 6.34 7.98 6 9 C3.93359375 9.94921875 3.93359375 9.94921875 1.4375 10.6875 C0.19806641 11.06455078 0.19806641 11.06455078 -1.06640625 11.44921875 C-1.70449219 11.63097656 -2.34257813 11.81273438 -3 12 C-3.33 10.35 -3.66 8.7 -4 7 C-2.02 7 -0.04 7 2 7 C1.67 6.01 1.34 5.02 1 4 C0.34 3.67 -0.32 3.34 -1 3 C-0.67 2.01 -0.34 1.02 0 0 Z " fill="#58A8F4" transform="translate(88,83)"/>
<path d="M0 0 C3.29714793 0.32971479 4.6226839 0.6226839 7 3 C6.875 5.5 6.875 5.5 6 8 C4.25 9.5 4.25 9.5 2 10 C-0.75 8.625 -0.75 8.625 -3 7 C-2.25 2.25 -2.25 2.25 0 0 Z " fill="#060C17" transform="translate(164,52)"/>
<path d="M0 0 C6.75 3.75 6.75 3.75 9 6 C8.68134222 9.29279709 7.45484649 10.86535088 5 13 C4.67 12.01 4.34 11.02 4 10 C3.01 10 2.02 10 1 10 C0.9175 9.401875 0.835 8.80375 0.75 8.1875 C-0.20455872 5.4033704 -1.57132271 4.56688858 -4 3 C-3.01 3 -2.02 3 -1 3 C-0.67 2.01 -0.34 1.02 0 0 Z " fill="#5589E3" transform="translate(169,48)"/>
<path d="M0 0 C2.20970874 2.89548041 3 4.33157745 3 8 C1.35 8.66 -0.3 9.32 -2 10 C-2.33 9.01 -2.66 8.02 -3 7 C-3.99 6.34 -4.98 5.68 -6 5 C-6 4.01 -6 3.02 -6 2 C-7.65 2 -9.3 2 -11 2 C-6.98127778 -0.67914814 -4.60037186 -1.61013015 0 0 Z " fill="#4E8BE0" transform="translate(107,49)"/>
<path d="M0 0 C1.875 0.25 1.875 0.25 4 1 C5.25 3.0625 5.25 3.0625 6 5 C5.01 5.33 4.02 5.66 3 6 C1.90833725 7.93330603 1.90833725 7.93330603 1 10 C0.34 10.66 -0.32 11.32 -1 12 C-1.99 12 -2.98 12 -4 12 C-4.33 11.01 -4.66 10.02 -5 9 C-4.01 8.34 -3.02 7.68 -2 7 C-0.7811879 3.44327821 -0.7811879 3.44327821 0 0 Z " fill="#656DF0" transform="translate(88,22)"/>
<path d="M0 0 C0.99 0 1.98 0 3 0 C2.67 2.31 2.34 4.62 2 7 C-4.4 8.35384615 -4.4 8.35384615 -7.4375 6.5625 C-7.953125 6.046875 -8.46875 5.53125 -9 5 C-8.34 5 -7.68 5 -7 5 C-6.67 3.68 -6.34 2.36 -6 1 C-5.38125 1.20625 -4.7625 1.4125 -4.125 1.625 C-3.073125 1.810625 -3.073125 1.810625 -2 2 C-1.34 1.34 -0.68 0.68 0 0 Z " fill="#19404D" transform="translate(129,196)"/>
<path d="M0 0 C5.8022175 -0.36263859 9.63999211 0.74315457 15 3 C14.67 3.99 14.34 4.98 14 6 C10.37 5.67 6.74 5.34 3 5 C3 4.34 3 3.68 3 3 C1.68 3 0.36 3 -1 3 C-0.67 2.01 -0.34 1.02 0 0 Z " fill="#50EBFB" transform="translate(136,74)"/>
<path d="M0 0 C0.99 0.33 1.98 0.66 3 1 C3 3.64 3 6.28 3 9 C0.36 8.67 -2.28 8.34 -5 8 C-5.33 6.68 -5.66 5.36 -6 4 C-4.02 4 -2.04 4 0 4 C0 2.68 0 1.36 0 0 Z " fill="#50EAF7" transform="translate(152,85)"/>
<path d="M0 0 C0.66 1.32 1.32 2.64 2 4 C1.01 5.485 1.01 5.485 0 7 C0.66 7.33 1.32 7.66 2 8 C1.125 15.75 1.125 15.75 0 18 C-0.66 18 -1.32 18 -2 18 C-2.33 18.66 -2.66 19.32 -3 20 C-3 19.01 -3 18.02 -3 17 C-2.34 17 -1.68 17 -1 17 C-1.33 16.34 -1.66 15.68 -2 15 C-2.12207871 13.21140489 -2.17548448 11.41771619 -2.1875 9.625 C-2.20167969 8.66851562 -2.21585937 7.71203125 -2.23046875 6.7265625 C-1.99745572 3.96989983 -1.40920164 2.35052605 0 0 Z " fill="#5D86EC" transform="translate(78,184)"/>
<path d="M0 0 C3.36720387 1.39332574 4.9859524 2.9789286 7 6 C6.01 6.495 6.01 6.495 5 7 C4.27840576 8.64363134 3.60648579 10.31050386 3 12 C1.68 11.67 0.36 11.34 -1 11 C-0.6875 9.0625 -0.6875 9.0625 0 7 C0.99 6.67 1.98 6.34 3 6 C1.68 4.35 0.36 2.7 -1 1 C-0.67 0.67 -0.34 0.34 0 0 Z " fill="#545ACB" transform="translate(83,16)"/>
<path d="M0 0 C2.31 0 4.62 0 7 0 C7.33 0.66 7.66 1.32 8 2 C6.68 2.33 5.36 2.66 4 3 C4 4.65 4 6.3 4 8 C3.67 7.01 3.34 6.02 3 5 C2.11248047 5.01740234 2.11248047 5.01740234 1.20703125 5.03515625 C-3.00231785 5.08322386 -6.8922333 5.06006883 -11 4 C-11 3.67 -11 3.34 -11 3 C-7.37 3 -3.74 3 0 3 C0 2.01 0 1.02 0 0 Z " fill="#3FBECE" transform="translate(149,76)"/>
<path d="M0 0 C2.125 0.375 2.125 0.375 4 1 C4.38218767 2.65614657 4.71395102 4.32457024 5 6 C4 7 4 7 1.4375 7.0625 C0.2309375 7.0315625 0.2309375 7.0315625 -1 7 C-1.625 4.625 -1.625 4.625 -2 2 C-1.34 1.34 -0.68 0.68 0 0 Z " fill="#448CDC" transform="translate(113,29)"/>
<path d="M0 0 C-0.33 1.65 -0.66 3.3 -1 5 C0.32 5.66 1.64 6.32 3 7 C-0.375 7.125 -0.375 7.125 -4 7 C-6 5 -6 5 -6.125 2.375 C-6.08375 1.59125 -6.0425 0.8075 -6 0 C-3.50907189 -1.24546405 -2.58919267 -0.7767578 0 0 Z " fill="#51C9F0" transform="translate(99,106)"/>
<path d="M0 0 C1.65 0.33 3.3 0.66 5 1 C5.33 1.99 5.66 2.98 6 4 C5 6 5 6 3.125 6.8125 C1 7 1 7 -0.75 5.5625 C-1.1625 5.046875 -1.575 4.53125 -2 4 C-1.34 2.68 -0.68 1.36 0 0 Z " fill="#5699EB" transform="translate(163,45)"/>
<path d="M0 0 C2.35448165 2.55068845 2.98327924 3.71017358 3.1875 7.25 C3.125625 8.1575 3.06375 9.065 3 10 C1.35 10.66 -0.3 11.32 -2 12 C-3.32 9.36 -4.64 6.72 -6 4 C-5.34 4 -4.68 4 -4 4 C-2.61767557 5.62626404 -1.28062485 7.2925002 0 9 C0 6.03 0 3.06 0 0 Z " fill="#50B9EE" transform="translate(158,170)"/>
<path d="M0 0 C0.66 0.33 1.32 0.66 2 1 C1.01 1.66 0.02 2.32 -1 3 C-1.33 3.99 -1.66 4.98 -2 6 C-1.01 6.33 -0.02 6.66 1 7 C-1.31 7.66 -3.62 8.32 -6 9 C-6 8.34 -6 7.68 -6 7 C-6.66 6.67 -7.32 6.34 -8 6 C-8 5.34 -8 4.68 -8 4 C-5.36107824 2.21694476 -3.02821137 1.00940379 0 0 Z " fill="#4E90E0" transform="translate(104,65)"/>
<path d="M0 0 C0.66 0.66 1.32 1.32 2 2 C1.54545455 7.45454545 1.54545455 7.45454545 -1 10 C-3.125 9.625 -3.125 9.625 -5 9 C-5 8.34 -5 7.68 -5 7 C-4.34 7 -3.68 7 -3 7 C-2.67 5.68 -2.34 4.36 -2 3 C-1.34 3 -0.68 3 0 3 C0 2.01 0 1.02 0 0 Z " fill="#58A4F7" transform="translate(172,56)"/>
<path d="M0 0 C-0.33 3.3 -0.66 6.6 -1 10 C-2.32 9.67 -3.64 9.34 -5 9 C-4.67 6.36 -4.34 3.72 -4 1 C-1 0 -1 0 0 0 Z " fill="#6686F7" transform="translate(145,37)"/>
<path d="M0 0 C1.32 0.33 2.64 0.66 4 1 C4.625 3.375 4.625 3.375 5 6 C3 8 3 8 0.375 8.125 C-0.40875 8.08375 -1.1925 8.0425 -2 8 C-1.34 7.67 -0.68 7.34 0 7 C0 4.69 0 2.38 0 0 Z " fill="#4FD1E6" transform="translate(147,105)"/>
<path d="M0 0 C2.41600723 3.62401085 2.41879914 5.72824881 2 10 C1.67 10 1.34 10 1 10 C0.71125 8.88625 0.4225 7.7725 0.125 6.625 C-0.69241329 2.99708908 -0.69241329 2.99708908 -3 1 C-5.66949409 0.75684344 -5.66949409 0.75684344 -8.625 0.875 C-9.62789062 0.89304688 -10.63078125 0.91109375 -11.6640625 0.9296875 C-12.82035156 0.96449219 -12.82035156 0.96449219 -14 1 C-9.08073998 -2.27950668 -4.91948942 -3.27965961 0 0 Z " fill="#5088DD" transform="translate(167,200)"/>
<path d="M0 0 C1.32 0 2.64 0 4 0 C5.5625 2.8125 5.5625 2.8125 7 6 C6.67 6.99 6.34 7.98 6 9 C5.34 9 4.68 9 4 9 C3.67 7.35 3.34 5.7 3 4 C1.68 3.67 0.36 3.34 -1 3 C-0.67 2.01 -0.34 1.02 0 0 Z " fill="#5394E7" transform="translate(88,83)"/>
<path d="M0 0 C1.32 0 2.64 0 4 0 C4 0.66 4 1.32 4 2 C3.34 2 2.68 2 2 2 C2.95865509 4.33075929 2.95865509 4.33075929 6 6 C4.02 6.99 4.02 6.99 2 8 C1.01 7.34 0.02 6.68 -1 6 C-0.67 4.02 -0.34 2.04 0 0 Z " fill="#4B91DC" transform="translate(165,61)"/>
<path d="M0 0 C0.99 0.66 1.98 1.32 3 2 C3 2.99 3 3.98 3 5 C2.34 5 1.68 5 1 5 C0.34 6.32 -0.32 7.64 -1 9 C-1.66 9 -2.32 9 -3 9 C-1.125 2.25 -1.125 2.25 0 0 Z " fill="#6091EE" transform="translate(165,185)"/>
<path d="M0 0 C2.33944736 0.28730055 4.6739143 0.61936779 7 1 C6.01 1.66 5.02 2.32 4 3 C3.67 3.99 3.34 4.98 3 6 C2.34 6 1.68 6 1 6 C0.67 5.34 0.34 4.68 0 4 C-0.66 4.66 -1.32 5.32 -2 6 C-1.125 1.125 -1.125 1.125 0 0 Z " fill="#46C3D9" transform="translate(131,72)"/>
<path d="M0 0 C0 0.99 0 1.98 0 3 C1.98 2.67 3.96 2.34 6 2 C6 2.66 6 3.32 6 4 C1.71 4 -2.58 4 -7 4 C-6.67 3.01 -6.34 2.02 -6 1 C-3 0 -3 0 0 0 Z " fill="#223A64" transform="translate(158,195)"/>
<path d="M0 0 C1.9668026 1.9668026 2.9371637 3.5444659 4.1875 6 C4.55230469 6.70125 4.91710937 7.4025 5.29296875 8.125 C5.52628906 8.74375 5.75960937 9.3625 6 10 C5.67 10.66 5.34 11.32 5 12 C4.01 12 3.02 12 2 12 C0.86235649 7.73383684 0 4.43513689 0 0 Z " fill="#46BAD1" transform="translate(151,156)"/>
<path d="M0 0 C1.65 0.33 3.3 0.66 5 1 C5.33 1.99 5.66 2.98 6 4 C5.01 4 4.02 4 3 4 C2.67 4.66 2.34 5.32 2 6 C1.01 5.67 0.02 5.34 -1 5 C-0.67 3.35 -0.34 1.7 0 0 Z " fill="#3E94D0" transform="translate(114,88)"/>
<path d="M0 0 C0.185625 0.9590625 0.185625 0.9590625 0.375 1.9375 C0.684375 2.9584375 0.684375 2.9584375 1 4 C1.66 4.33 2.32 4.66 3 5 C2.67 5.99 2.34 6.98 2 8 C0.35 8 -1.3 8 -3 8 C-1.125 1.125 -1.125 1.125 0 0 Z " fill="#5295DC" transform="translate(83,175)"/>
<path d="M0 0 C0.66 0.33 1.32 0.66 2 1 C2 3.64 2 6.28 2 9 C1.34 9 0.68 9 0 9 C-0.66 6.69 -1.32 4.38 -2 2 C-1.34 1.34 -0.68 0.68 0 0 Z " fill="#4BE3FA" transform="translate(151,163)"/>
<path d="M0 0 C0.33 0 0.66 0 1 0 C0.26086957 8.86956522 0.26086957 8.86956522 -3 12 C-3.66 12 -4.32 12 -5 12 C-3.41037341 7.96479403 -1.71767682 3.98188718 0 0 Z " fill="#4AB1DB" transform="translate(89,163)"/>
<path d="M0 0 C0.598125 0.226875 1.19625 0.45375 1.8125 0.6875 C1.8125 1.6775 1.8125 2.6675 1.8125 3.6875 C-0.1675 3.6875 -2.1475 3.6875 -4.1875 3.6875 C-4.5175 4.6775 -4.8475 5.6675 -5.1875 6.6875 C-5.1875 2.6875 -5.1875 2.6875 -3.9375 0.875 C-2.1875 -0.3125 -2.1875 -0.3125 0 0 Z " fill="#315D9A" transform="translate(88.1875,86.3125)"/>
<path d="M0 0 C4.3177458 0.50797009 8.03302114 1.19682779 12 3 C11.67 3.99 11.34 4.98 11 6 C9.68 6 8.36 6 7 6 C6.67 5.01 6.34 4.02 6 3 C5.01 3 4.02 3 3 3 C3 2.34 3 1.68 3 1 C2.01 0.67 1.02 0.34 0 0 Z " fill="#4AD9EE" transform="translate(139,74)"/>
<path d="M0 0 C1.875 0.25 1.875 0.25 4 1 C5.25 3.0625 5.25 3.0625 6 5 C5.01 5.495 5.01 5.495 4 6 C4 5.34 4 4.68 4 4 C2.68 3.67 1.36 3.34 0 3 C-0.33 3.66 -0.66 4.32 -1 5 C-0.67 3.35 -0.34 1.7 0 0 Z " fill="#5B60D3" transform="translate(88,22)"/>
<path d="M0 0 C2.475 0.495 2.475 0.495 5 1 C3.92598892 3.91517292 3.22189824 5.77810176 1 8 C0.67 5.36 0.34 2.72 0 0 Z " fill="#5094EB" transform="translate(106,56)"/>
<path d="M0 0 C1.65 0 3.3 0 5 0 C3.79618552 2.49361571 2.54571278 4.68143083 1 7 C0.01 5.68 -0.98 4.36 -2 3 C-1.34 3 -0.68 3 0 3 C0 2.01 0 1.02 0 0 Z " fill="#5660D8" transform="translate(82,27)"/>
<path d="M0 0 C0.99 0 1.98 0 3 0 C2.6875 1.875 2.6875 1.875 2 4 C1.01 4.66 0.02 5.32 -1 6 C-1.66 5.67 -2.32 5.34 -3 5 C-1.125 1.125 -1.125 1.125 0 0 Z " fill="#5A61DC" transform="translate(78,21)"/>
<path d="M0 0 C2.46800047 1.15173355 4.04783565 2.04783565 6 4 C5.01 4 4.02 4 3 4 C3 4.66 3 5.32 3 6 C1.68 6 0.36 6 -1 6 C-0.67 4.02 -0.34 2.04 0 0 Z " fill="#389CB2" transform="translate(106,194)"/>
<path d="M0 0 C2.475 0.495 2.475 0.495 5 1 C4.625 2.9375 4.625 2.9375 4 5 C3.01 5.495 3.01 5.495 2 6 C0 3 0 3 0 0 Z " fill="#5995F0" transform="translate(80,84)"/>
<path d="M0 0 C1.98 0.495 1.98 0.495 4 1 C3.67 2.32 3.34 3.64 3 5 C1.68 4.67 0.36 4.34 -1 4 C-0.67 2.68 -0.34 1.36 0 0 Z " fill="#080920" transform="translate(83,23)"/>
<path d="M0 0 C0.99 0 1.98 0 3 0 C2.67 1.98 2.34 3.96 2 6 C1.01 6 0.02 6 -1 6 C-1.042721 4.33388095 -1.04063832 2.66617115 -1 1 C-0.67 0.67 -0.34 0.34 0 0 Z " fill="#4496B1" transform="translate(129,196)"/>
<path d="M0 0 C0 0.99 0 1.98 0 3 C-1.175625 3.433125 -1.175625 3.433125 -2.375 3.875 C-5.09671632 4.84912254 -5.09671632 4.84912254 -7 7 C-7 5.68 -7 4.36 -7 3 C-4.69 2.01 -2.38 1.02 0 0 Z " fill="#5386DF" transform="translate(95,51)"/>
<path d="M0 0 C0.66 0 1.32 0 2 0 C2 0.99 2 1.98 2 3 C1.34 3 0.68 3 0 3 C-0.33 3.99 -0.66 4.98 -1 6 C-1.99 6 -2.98 6 -4 6 C-3.34 4.68 -2.68 3.36 -2 2 C-1.34 2 -0.68 2 0 2 C0 1.34 0 0.68 0 0 Z " fill="#3EAFBA" transform="translate(122,203)"/>
<path d="M0 0 C1.98 0.495 1.98 0.495 4 1 C4 1.99 4 2.98 4 4 C2.35 4 0.7 4 -1 4 C-0.67 2.68 -0.34 1.36 0 0 Z " fill="#4E9FC6" transform="translate(170,116)"/>
<path d="M0 0 C0.66 0.66 1.32 1.32 2 2 C1.625 5.125 1.625 5.125 1 8 C-0.32 6.68 -1.64 5.36 -3 4 C-2.01 3.67 -1.02 3.34 0 3 C0 2.01 0 1.02 0 0 Z " fill="#589CEE" transform="translate(172,56)"/>
</svg>
